<?xml version="1.0" encoding="UTF-8"?> <svg xmlns="http://www.w3.org/2000/svg" xmlns:xlink="http://www.w3.org/1999/xlink" id="Layer_1" data-name="Layer 1" viewBox="0 0 98.67 98.55"><defs><style>.cls-1{fill:none;}.cls-2{clip-path:url(#clip-path);}.cls-3{fill:url(#New_Gradient_Swatch_copy);}.cls-4{fill:url(#New_Gradient_Swatch_copy-2);}.cls-5{clip-path:url(#clip-path-2);}.cls-6{clip-path:url(#clip-path-3);}</style><clipPath id="clip-path" transform="translate(-5.82 -6.07)"><path class="cls-1" d="M73,81.72H71.3V65.94a16.3,16.3,0,0,0-32.6,0V81.72H37V65.94a18,18,0,0,1,36,0Z"></path></clipPath><linearGradient id="New_Gradient_Swatch_copy" x1="-3720.49" y1="-408.13" x2="-3653.13" y2="-524.81" gradientTransform="translate(3741.96 521.81)" gradientUnits="userSpaceOnUse"><stop offset="0" stop-color="#5ac4c3"></stop><stop offset="0.35" stop-color="#16ad83"></stop><stop offset="1" stop-color="#037ade"></stop></linearGradient><linearGradient id="New_Gradient_Swatch_copy-2" x1="6.37" y1="55.02" x2="103.63" y2="55.02" gradientTransform="matrix(1, 0, 0, 1, 0, 0)" xlink:href="#New_Gradient_Swatch_copy"></linearGradient><clipPath id="clip-path-2" transform="translate(-5.82 -6.07)"><path class="cls-1" d="M55,44.43A10.06,10.06,0,1,1,65.06,34.37,10.07,10.07,0,0,1,55,44.43ZM55,26a8.36,8.36,0,1,0,8.36,8.36A8.37,8.37,0,0,0,55,26Z"></path></clipPath><clipPath id="clip-path-3" transform="translate(-5.82 -6.07)"><path class="cls-1" d="M54.84,83c-.89,0-5.78-.17-7.69-3.9-2.08-4.07.33-10.66,7.18-19.58L57,56l-1.16,4.2c-1.64,6-.88,8.57,0,9.72a2.57,2.57,0,0,0,1.94,1h.09s1.42,0,2.15-2.18l.65-2,.92,1.89c2.26,4.68,2.58,8.35.93,10.89C60.31,83,55.38,83,54.94,83ZM53.35,63.71c-5.7,8.26-5.77,12.47-4.69,14.58,1.58,3.08,6.21,3,6.26,3h0s4.39.08,6.15-2.65c1.12-1.74,1-4.29-.32-7.61a3.72,3.72,0,0,1-3,1.64A4.31,4.31,0,0,1,54.53,71C53.29,69.44,52.89,67,53.35,63.71Z"></path></clipPath></defs><g class="cls-2"><rect class="cls-3" x="5.88" y="6.01" width="98.55" height="98.67" transform="translate(104.68 -5.88) rotate(90)"></rect></g><path class="cls-4" d="M55,103.65A48.63,48.63,0,1,1,103.63,55,48.69,48.69,0,0,1,55,103.65ZM55,8.09A46.93,46.93,0,1,0,101.93,55,47,47,0,0,0,55,8.09Z" transform="translate(-5.82 -6.07)"></path><g class="cls-5"><rect class="cls-3" x="5.88" y="6.01" width="98.55" height="98.67" transform="translate(104.68 -5.88) rotate(90)"></rect></g><g class="cls-6"><rect class="cls-3" x="5.88" y="6.01" width="98.55" height="98.67" transform="translate(104.68 -5.88) rotate(90)"></rect></g></svg> 