<?xml version="1.0" encoding="UTF-8"?> <svg xmlns="http://www.w3.org/2000/svg" xmlns:xlink="http://www.w3.org/1999/xlink" id="Layer_1" data-name="Layer 1" viewBox="0 0 99.38 99.1"><defs><style>.cls-1{fill:url(#New_Gradient_Swatch_copy);}.cls-2{fill:url(#New_Gradient_Swatch_copy-2);}.cls-3{fill:url(#New_Gradient_Swatch_copy-3);}.cls-4{fill:url(#New_Gradient_Swatch_copy-4);}.cls-5{fill:url(#New_Gradient_Swatch_copy-5);}.cls-6{fill:url(#New_Gradient_Swatch_copy-6);}.cls-7{fill:url(#New_Gradient_Swatch_copy-7);}.cls-8{fill:url(#New_Gradient_Swatch_copy-8);}.cls-9{clip-path:url(#clip-path);}.cls-10{fill:url(#New_Gradient_Swatch_copy-10);}.cls-11{fill:none;}.cls-12{clip-path:url(#clip-path-2);}.cls-13{fill:url(#New_Gradient_Swatch_copy-12);}.cls-14{clip-path:url(#clip-path-3);}.cls-15{fill:url(#New_Gradient_Swatch_copy-14);}.cls-16{clip-path:url(#clip-path-4);}.cls-17{fill:url(#New_Gradient_Swatch_copy-16);}.cls-18{clip-path:url(#clip-path-5);}.cls-19{clip-path:url(#clip-path-6);}.cls-20{fill:url(#New_Gradient_Swatch_copy-20);}.cls-21{clip-path:url(#clip-path-7);}.cls-22{fill:url(#New_Gradient_Swatch_copy-22);}.cls-23{clip-path:url(#clip-path-8);}.cls-24{fill:url(#New_Gradient_Swatch_copy-24);}</style><linearGradient id="New_Gradient_Swatch_copy" x1="30.77" y1="97.28" x2="79.43" y2="13" gradientUnits="userSpaceOnUse"><stop offset="0" stop-color="#5ac4c3"></stop><stop offset="0.35" stop-color="#16ad83"></stop><stop offset="1" stop-color="#037ade"></stop></linearGradient><linearGradient id="New_Gradient_Swatch_copy-2" x1="27.15" y1="56.48" x2="34.09" y2="44.46" xlink:href="#New_Gradient_Swatch_copy"></linearGradient><linearGradient id="New_Gradient_Swatch_copy-3" x1="27.18" y1="44.96" x2="33.1" y2="34.7" xlink:href="#New_Gradient_Swatch_copy"></linearGradient><linearGradient id="New_Gradient_Swatch_copy-4" x1="77.9" y1="56.48" x2="84.84" y2="44.46" xlink:href="#New_Gradient_Swatch_copy"></linearGradient><linearGradient id="New_Gradient_Swatch_copy-5" x1="77.93" y1="44.96" x2="83.85" y2="34.7" xlink:href="#New_Gradient_Swatch_copy"></linearGradient><linearGradient id="New_Gradient_Swatch_copy-6" x1="52.79" y1="89.65" x2="59.73" y2="77.62" xlink:href="#New_Gradient_Swatch_copy"></linearGradient><linearGradient id="New_Gradient_Swatch_copy-7" x1="52.81" y1="78.12" x2="58.73" y2="67.87" xlink:href="#New_Gradient_Swatch_copy"></linearGradient><linearGradient id="New_Gradient_Swatch_copy-8" x1="47.4" y1="59.81" x2="59.91" y2="38.15" xlink:href="#New_Gradient_Swatch_copy"></linearGradient><clipPath id="clip-path" transform="translate(-5.47 -5.79)"><path class="cls-1" d="M55.1,103.81a48.67,48.67,0,1,1,48.67-48.67A48.72,48.72,0,0,1,55.1,103.81Zm0-95.56A46.89,46.89,0,1,0,102,55.14,46.94,46.94,0,0,0,55.1,8.25Z"></path></clipPath><linearGradient id="New_Gradient_Swatch_copy-10" x1="-3720.77" y1="-407.78" x2="-3653.4" y2="-524.45" gradientTransform="translate(3741.89 521.18)" xlink:href="#New_Gradient_Swatch_copy"></linearGradient><clipPath id="clip-path-2" transform="translate(-5.47 -5.79)"><path class="cls-2" d="M35.2,45.15a.78.78,0,0,0-1,.33,4.64,4.64,0,0,1-8.11,0,.79.79,0,0,0-1-.32,8.11,8.11,0,0,0-4.68,7,.79.79,0,0,0,.78.78H39.1a.79.79,0,0,0,.78-.78A8.11,8.11,0,0,0,35.2,45.15ZM22,51.34a6.24,6.24,0,0,1,3.09-4.46,6.21,6.21,0,0,0,10,0,6.25,6.25,0,0,1,3.08,4.46Z"></path></clipPath><linearGradient id="New_Gradient_Swatch_copy-12" x1="-3720.21" y1="-408.49" x2="-3652.85" y2="-525.16" gradientTransform="translate(3742.04 522.45)" xlink:href="#New_Gradient_Swatch_copy"></linearGradient><clipPath id="clip-path-3" transform="translate(-5.47 -5.79)"><path class="cls-3" d="M30.14,46a4.37,4.37,0,0,0,4.37-4.37V38a4.37,4.37,0,1,0-8.74,0v3.58A4.37,4.37,0,0,0,30.14,46Zm0-10.75a2.8,2.8,0,0,1,2.8,2.8v3.58a2.81,2.81,0,1,1-5.61,0V38A2.8,2.8,0,0,1,30.14,35.24Z"></path></clipPath><linearGradient id="New_Gradient_Swatch_copy-14" x1="-3720.21" y1="-408.34" x2="-3652.85" y2="-525.01" gradientTransform="translate(3741.89 522.3)" xlink:href="#New_Gradient_Swatch_copy"></linearGradient><clipPath id="clip-path-4" transform="translate(-5.47 -5.79)"><path class="cls-4" d="M86,45.15a.77.77,0,0,0-1,.33,4.64,4.64,0,0,1-8.11,0,.78.78,0,0,0-1-.32,8.11,8.11,0,0,0-4.68,7,.79.79,0,0,0,.78.78H89.85a.79.79,0,0,0,.78-.78A8.11,8.11,0,0,0,86,45.15ZM72.79,51.34a6.25,6.25,0,0,1,3.08-4.46,6.22,6.22,0,0,0,10,0A6.25,6.25,0,0,1,89,51.34Z"></path></clipPath><linearGradient id="New_Gradient_Swatch_copy-16" x1="-3720.43" y1="-408.11" x2="-3653.07" y2="-524.79" gradientTransform="translate(3741.89 521.85)" xlink:href="#New_Gradient_Swatch_copy"></linearGradient><clipPath id="clip-path-5" transform="translate(-5.47 -5.79)"><path class="cls-5" d="M80.89,46a4.37,4.37,0,0,0,4.36-4.37V38a4.37,4.37,0,1,0-8.73,0v3.58A4.37,4.37,0,0,0,80.89,46Zm0-1.56a2.81,2.81,0,0,1-2.81-2.81V38a2.81,2.81,0,0,1,5.61,0v3.58A2.81,2.81,0,0,1,80.89,44.43Z"></path></clipPath><clipPath id="clip-path-6" transform="translate(-5.47 -5.79)"><path class="cls-6" d="M60.83,78.31a.78.78,0,0,0-1,.33,4.63,4.63,0,0,1-8.1,0,.79.79,0,0,0-1-.32,8.13,8.13,0,0,0-4.69,7,.79.79,0,0,0,.79.78H64.74a.76.76,0,0,0,.55-.23.75.75,0,0,0,.23-.55A8.13,8.13,0,0,0,60.83,78.31ZM47.67,84.5A6.3,6.3,0,0,1,50.76,80a6.2,6.2,0,0,0,10,0,6.27,6.27,0,0,1,3.09,4.46Z"></path></clipPath><linearGradient id="New_Gradient_Swatch_copy-20" x1="-3720.43" y1="-408.11" x2="-3653.07" y2="-524.79" gradientTransform="translate(3741.89 521.85)" xlink:href="#New_Gradient_Swatch_copy"></linearGradient><clipPath id="clip-path-7" transform="translate(-5.47 -5.79)"><path class="cls-7" d="M55.77,79.15a4.37,4.37,0,0,0,4.37-4.36V71.2a4.37,4.37,0,1,0-8.74,0v3.59A4.37,4.37,0,0,0,55.77,79.15Zm0-1.56a2.81,2.81,0,0,1-2.8-2.8V71.2a2.8,2.8,0,0,1,5.6,0v3.59A2.8,2.8,0,0,1,55.77,77.59Z"></path></clipPath><linearGradient id="New_Gradient_Swatch_copy-22" x1="-3720.43" y1="-408.26" x2="-3653.07" y2="-524.94" gradientTransform="translate(3742.04 522)" xlink:href="#New_Gradient_Swatch_copy"></linearGradient><clipPath id="clip-path-8" transform="translate(-5.47 -5.79)"><path class="cls-8" d="M71.25,44.8A.9.9,0,0,0,70,44.55L58.14,52.43a3.36,3.36,0,0,0-4.73-.09L41.59,44.5a.89.89,0,0,0-1.24.24A.9.9,0,0,0,40.6,46l11.89,7.9A3.29,3.29,0,0,0,54.82,58v5.56a.9.9,0,0,0,1.79,0V58A3.33,3.33,0,0,0,59,54l12-8A.9.9,0,0,0,71.25,44.8ZM55.73,56.37a1.59,1.59,0,1,1,1.59-1.59A1.6,1.6,0,0,1,55.73,56.37Z"></path></clipPath><linearGradient id="New_Gradient_Swatch_copy-24" x1="-3720.77" y1="-407.78" x2="-3653.4" y2="-524.45" gradientTransform="translate(3741.89 521.18)" xlink:href="#New_Gradient_Swatch_copy"></linearGradient></defs><path class="cls-1" d="M55.1,103.81a48.67,48.67,0,1,1,48.67-48.67A48.72,48.72,0,0,1,55.1,103.81Zm0-95.56A46.89,46.89,0,1,0,102,55.14,46.94,46.94,0,0,0,55.1,8.25Z" transform="translate(-5.47 -5.79)"></path><g class="cls-9"><rect class="cls-10" x="5.53" y="5.73" width="98.55" height="98.67" transform="translate(104.4 -5.53) rotate(90)"></rect></g><path class="cls-11" d="M58.57,71.2a2.8,2.8,0,0,0-5.6,0v3.59a2.8,2.8,0,1,0,5.6,0Z" transform="translate(-5.47 -5.79)"></path><path class="cls-11" d="M27.33,41.62a2.81,2.81,0,1,0,5.61,0V38a2.81,2.81,0,0,0-5.61,0Z" transform="translate(-5.47 -5.79)"></path><path class="cls-11" d="M83.69,38a2.81,2.81,0,0,0-5.61,0v3.58a2.81,2.81,0,1,0,5.61,0Z" transform="translate(-5.47 -5.79)"></path><path class="cls-11" d="M35.15,46.88a6.21,6.21,0,0,1-10,0A6.24,6.24,0,0,0,22,51.34H38.23A6.25,6.25,0,0,0,35.15,46.88Z" transform="translate(-5.47 -5.79)"></path><path class="cls-11" d="M85.9,46.88a6.22,6.22,0,0,1-10,0,6.25,6.25,0,0,0-3.08,4.46H89A6.25,6.25,0,0,0,85.9,46.88Z" transform="translate(-5.47 -5.79)"></path><path class="cls-11" d="M60.78,80a6.2,6.2,0,0,1-10,0,6.3,6.3,0,0,0-3.09,4.46h16.2A6.27,6.27,0,0,0,60.78,80Z" transform="translate(-5.47 -5.79)"></path><path class="cls-2" d="M35.2,45.15a.78.78,0,0,0-1,.33,4.64,4.64,0,0,1-8.11,0,.79.79,0,0,0-1-.32,8.11,8.11,0,0,0-4.68,7,.79.79,0,0,0,.78.78H39.1a.79.79,0,0,0,.78-.78A8.11,8.11,0,0,0,35.2,45.15ZM22,51.34a6.24,6.24,0,0,1,3.09-4.46,6.21,6.21,0,0,0,10,0,6.25,6.25,0,0,1,3.08,4.46Z" transform="translate(-5.47 -5.79)"></path><g class="cls-12"><rect class="cls-13" x="6.24" y="6.29" width="98.55" height="98.67" transform="translate(105.67 -5.68) rotate(90)"></rect></g><path class="cls-3" d="M30.14,46a4.37,4.37,0,0,0,4.37-4.37V38a4.37,4.37,0,1,0-8.74,0v3.58A4.37,4.37,0,0,0,30.14,46Zm0-10.75a2.8,2.8,0,0,1,2.8,2.8v3.58a2.81,2.81,0,1,1-5.61,0V38A2.8,2.8,0,0,1,30.14,35.24Z" transform="translate(-5.47 -5.79)"></path><g class="cls-14"><rect class="cls-15" x="6.09" y="6.29" width="98.55" height="98.67" transform="translate(105.52 -5.53) rotate(90)"></rect></g><path class="cls-4" d="M86,45.15a.77.77,0,0,0-1,.33,4.64,4.64,0,0,1-8.11,0,.78.78,0,0,0-1-.32,8.11,8.11,0,0,0-4.68,7,.79.79,0,0,0,.78.78H89.85a.79.79,0,0,0,.78-.78A8.11,8.11,0,0,0,86,45.15ZM72.79,51.34a6.25,6.25,0,0,1,3.08-4.46,6.22,6.22,0,0,0,10,0A6.25,6.25,0,0,1,89,51.34Z" transform="translate(-5.47 -5.79)"></path><g class="cls-16"><rect class="cls-17" x="5.86" y="6.06" width="98.55" height="98.67" transform="translate(105.07 -5.53) rotate(90)"></rect></g><path class="cls-5" d="M80.89,46a4.37,4.37,0,0,0,4.36-4.37V38a4.37,4.37,0,1,0-8.73,0v3.58A4.37,4.37,0,0,0,80.89,46Zm0-1.56a2.81,2.81,0,0,1-2.81-2.81V38a2.81,2.81,0,0,1,5.61,0v3.58A2.81,2.81,0,0,1,80.89,44.43Z" transform="translate(-5.47 -5.79)"></path><g class="cls-18"><rect class="cls-10" x="5.53" y="5.73" width="98.55" height="98.67" transform="translate(104.4 -5.53) rotate(90)"></rect></g><path class="cls-6" d="M60.83,78.31a.78.78,0,0,0-1,.33,4.63,4.63,0,0,1-8.1,0,.79.79,0,0,0-1-.32,8.13,8.13,0,0,0-4.69,7,.79.79,0,0,0,.79.78H64.74a.76.76,0,0,0,.55-.23.75.75,0,0,0,.23-.55A8.13,8.13,0,0,0,60.83,78.31ZM47.67,84.5A6.3,6.3,0,0,1,50.76,80a6.2,6.2,0,0,0,10,0,6.27,6.27,0,0,1,3.09,4.46Z" transform="translate(-5.47 -5.79)"></path><g class="cls-19"><rect class="cls-20" x="5.86" y="6.06" width="98.55" height="98.67" transform="translate(105.07 -5.53) rotate(90)"></rect></g><path class="cls-7" d="M55.77,79.15a4.37,4.37,0,0,0,4.37-4.36V71.2a4.37,4.37,0,1,0-8.74,0v3.59A4.37,4.37,0,0,0,55.77,79.15Zm0-1.56a2.81,2.81,0,0,1-2.8-2.8V71.2a2.8,2.8,0,0,1,5.6,0v3.59A2.8,2.8,0,0,1,55.77,77.59Z" transform="translate(-5.47 -5.79)"></path><g class="cls-21"><rect class="cls-22" x="6.01" y="6.06" width="98.55" height="98.67" transform="translate(105.22 -5.68) rotate(90)"></rect></g><circle class="cls-11" cx="50.26" cy="48.99" r="1.59"></circle><path class="cls-8" d="M71.25,44.8A.9.9,0,0,0,70,44.55L58.14,52.43a3.36,3.36,0,0,0-4.73-.09L41.59,44.5a.89.89,0,0,0-1.24.24A.9.9,0,0,0,40.6,46l11.89,7.9A3.29,3.29,0,0,0,54.82,58v5.56a.9.9,0,0,0,1.79,0V58A3.33,3.33,0,0,0,59,54l12-8A.9.9,0,0,0,71.25,44.8ZM55.73,56.37a1.59,1.59,0,1,1,1.59-1.59A1.6,1.6,0,0,1,55.73,56.37Z" transform="translate(-5.47 -5.79)"></path><g class="cls-23"><rect class="cls-24" x="5.53" y="5.73" width="98.55" height="98.67" transform="translate(104.4 -5.53) rotate(90)"></rect></g></svg> 