<?xml version="1.0" encoding="UTF-8"?> <svg xmlns="http://www.w3.org/2000/svg" xmlns:xlink="http://www.w3.org/1999/xlink" id="Layer_1" data-name="Layer 1" viewBox="0 0 98.67 98.55"><defs><style>.cls-1{fill:url(#New_Gradient_Swatch_copy);}.cls-2{fill:url(#New_Gradient_Swatch_copy-2);}.cls-3{fill:url(#New_Gradient_Swatch_copy-3);}.cls-4{fill:url(#New_Gradient_Swatch_copy-4);}.cls-5{fill:url(#New_Gradient_Swatch_copy-5);}.cls-6{fill:url(#New_Gradient_Swatch_copy-6);}.cls-7{fill:url(#New_Gradient_Swatch_copy-7);}.cls-8{fill:url(#New_Gradient_Swatch_copy-8);}.cls-9{fill:url(#New_Gradient_Swatch_copy-9);}.cls-10{clip-path:url(#clip-path);}.cls-11{fill:url(#New_Gradient_Swatch_copy-11);}.cls-12{clip-path:url(#clip-path-2);}.cls-13{clip-path:url(#clip-path-3);}.cls-14{clip-path:url(#clip-path-4);}.cls-15{clip-path:url(#clip-path-5);}.cls-16{clip-path:url(#clip-path-6);}.cls-17{clip-path:url(#clip-path-7);}.cls-18{clip-path:url(#clip-path-8);}</style><linearGradient id="New_Gradient_Swatch_copy" x1="39.37" y1="78.07" x2="48.26" y2="62.67" gradientUnits="userSpaceOnUse"><stop offset="0" stop-color="#5ac4c3"></stop><stop offset="0.35" stop-color="#16ad83"></stop><stop offset="1" stop-color="#037ade"></stop></linearGradient><linearGradient id="New_Gradient_Swatch_copy-2" x1="53.86" y1="75.23" x2="59.33" y2="65.76" xlink:href="#New_Gradient_Swatch_copy"></linearGradient><linearGradient id="New_Gradient_Swatch_copy-3" x1="41.32" y1="61.38" x2="59.37" y2="30.11" xlink:href="#New_Gradient_Swatch_copy"></linearGradient><linearGradient id="New_Gradient_Swatch_copy-4" x1="44.52" y1="88.47" x2="56.01" y2="68.57" xlink:href="#New_Gradient_Swatch_copy"></linearGradient><linearGradient id="New_Gradient_Swatch_copy-5" x1="87.02" y1="48.33" x2="90.1" y2="43" xlink:href="#New_Gradient_Swatch_copy"></linearGradient><linearGradient id="New_Gradient_Swatch_copy-6" x1="44.28" y1="56.26" x2="56.42" y2="35.24" xlink:href="#New_Gradient_Swatch_copy"></linearGradient><linearGradient id="New_Gradient_Swatch_copy-7" x1="47.1" y1="51.38" x2="53.6" y2="40.12" xlink:href="#New_Gradient_Swatch_copy"></linearGradient><linearGradient id="New_Gradient_Swatch_copy-8" x1="63.35" y1="54.55" x2="73.72" y2="36.58" xlink:href="#New_Gradient_Swatch_copy"></linearGradient><linearGradient id="New_Gradient_Swatch_copy-9" x1="6.23" y1="55.43" x2="103.49" y2="55.43" xlink:href="#New_Gradient_Swatch_copy"></linearGradient><clipPath id="clip-path" transform="translate(-5.82 -6.07)"><path class="cls-1" d="M46.68,62.5,39.16,78l1.53.74,7.74-15.91C47.84,62.71,47.25,62.62,46.68,62.5Z"></path></clipPath><linearGradient id="New_Gradient_Swatch_copy-11" x1="-3720.49" y1="-408.13" x2="-3653.13" y2="-524.81" gradientTransform="translate(3741.96 521.81)" xlink:href="#New_Gradient_Swatch_copy"></linearGradient><clipPath id="clip-path-2" transform="translate(-5.82 -6.07)"><path class="cls-2" d="M52,62.79l7.88,15.9,1.52-.75L53.74,62.53C53.16,62.64,52.57,62.73,52,62.79Z"></path></clipPath><clipPath id="clip-path-3" transform="translate(-5.82 -6.07)"><path class="cls-3" d="M66.37,49.07a16.38,16.38,0,1,1,.15-5.76h1.72a18.07,18.07,0,1,0-.15,5.76Z"></path></clipPath><clipPath id="clip-path-4" transform="translate(-5.82 -6.07)"><rect class="cls-4" x="28.76" y="77.67" width="43.02" height="1.7"></rect></clipPath><clipPath id="clip-path-5" transform="translate(-5.82 -6.07)"><polygon class="cls-5" points="89.47 49.75 84.74 46.19 89.47 42.64 90.5 43.99 87.57 46.19 90.5 48.39 89.47 49.75"></polygon></clipPath><clipPath id="clip-path-6" transform="translate(-5.82 -6.07)"><path class="cls-6" d="M60.25,49.07a10.44,10.44,0,1,1,.25-5.76h1.74A12.15,12.15,0,1,0,62,49.07Z"></path></clipPath><clipPath id="clip-path-7" transform="translate(-5.82 -6.07)"><path class="cls-7" d="M53.82,49.07a4.81,4.81,0,1,1,.67-5.76h1.89a6.5,6.5,0,1,0-.44,5.76Z"></path></clipPath><clipPath id="clip-path-8" transform="translate(-5.82 -6.07)"><polygon class="cls-8" points="84.2 49.75 80.6 47.04 50.35 47.04 50.35 45.34 80.6 45.34 84.2 42.64 85.22 43.99 82.3 46.19 85.22 48.39 84.2 49.75"></polygon></clipPath></defs><path class="cls-9" d="M54.86,104.06a48.63,48.63,0,1,1,48.63-48.63A48.68,48.68,0,0,1,54.86,104.06Zm0-95.56a46.93,46.93,0,1,0,46.93,46.93A47,47,0,0,0,54.86,8.5Z" transform="translate(-5.82 -6.07)"></path><path class="cls-1" d="M46.68,62.5,39.16,78l1.53.74,7.74-15.91C47.84,62.71,47.25,62.62,46.68,62.5Z" transform="translate(-5.82 -6.07)"></path><g class="cls-10"><rect class="cls-11" x="5.88" y="6.01" width="98.55" height="98.67" transform="translate(104.68 -5.88) rotate(90)"></rect></g><path class="cls-2" d="M52,62.79l7.88,15.9,1.52-.75L53.74,62.53C53.16,62.64,52.57,62.73,52,62.79Z" transform="translate(-5.82 -6.07)"></path><g class="cls-12"><rect class="cls-11" x="5.88" y="6.01" width="98.55" height="98.67" transform="translate(104.68 -5.88) rotate(90)"></rect></g><path class="cls-3" d="M66.37,49.07a16.38,16.38,0,1,1,.15-5.76h1.72a18.07,18.07,0,1,0-.15,5.76Z" transform="translate(-5.82 -6.07)"></path><g class="cls-13"><rect class="cls-11" x="5.88" y="6.01" width="98.55" height="98.67" transform="translate(104.68 -5.88) rotate(90)"></rect></g><rect class="cls-4" x="22.94" y="71.6" width="43.02" height="1.7"></rect><g class="cls-14"><rect class="cls-11" x="5.88" y="6.01" width="98.55" height="98.67" transform="translate(104.68 -5.88) rotate(90)"></rect></g><polygon class="cls-5" points="83.66 43.68 78.92 40.12 83.66 36.57 84.67 37.92 81.75 40.12 84.67 42.32 83.66 43.68"></polygon><g class="cls-15"><rect class="cls-11" x="5.88" y="6.01" width="98.55" height="98.67" transform="translate(104.68 -5.88) rotate(90)"></rect></g><path class="cls-6" d="M60.25,49.07a10.44,10.44,0,1,1,.25-5.76h1.74A12.15,12.15,0,1,0,62,49.07Z" transform="translate(-5.82 -6.07)"></path><g class="cls-16"><rect class="cls-11" x="5.88" y="6.01" width="98.55" height="98.67" transform="translate(104.68 -5.88) rotate(90)"></rect></g><path class="cls-7" d="M53.82,49.07a4.81,4.81,0,1,1,.67-5.76h1.89a6.5,6.5,0,1,0-.44,5.76Z" transform="translate(-5.82 -6.07)"></path><g class="cls-17"><rect class="cls-11" x="5.88" y="6.01" width="98.55" height="98.67" transform="translate(104.68 -5.88) rotate(90)"></rect></g><polygon class="cls-8" points="78.39 43.68 74.78 40.97 44.53 40.97 44.53 39.27 74.78 39.27 78.39 36.57 79.41 37.92 76.48 40.12 79.41 42.32 78.39 43.68"></polygon><g class="cls-18"><rect class="cls-11" x="5.88" y="6.01" width="98.55" height="98.67" transform="translate(104.68 -5.88) rotate(90)"></rect></g></svg> 